# xmcd
#
# Track frame offsets:
#	150
#	14847
#	33802
#	43210
#	54272
#	65617
#	74625
#	87977
#	99232
#	111455
#	122635
#	132795
#	146240
#	155747
#	168202
#	180307
#	193595
#	202925
#	215307
#	225505
#	236485
#
# Disc length: 3332 seconds
#
# Revision: 1
# Processed by: cddbd v1.4PL0 Copyright (c) Steve Scherf et al.
# Submitted via: audiograbber 1.80.04
#
DISCID=290d0215
DTITLE=Tammy Wynette - Divorce and Your Good Girl's Gonna Go Bad
DYEAR=1900
DGENRE=
TTITLE0=Gentle On My Mind
TTITLE1=Honey (I Miss You)
TTITLE2=The Legend Of Bonnie and Clyde
TTITLE3=All Night Long
TTITLE4=Sweet Dreams
TTITLE5=Yesterday
TTITLE6=D-I-V-O-R-C-E
TTITLE7=Come On Over
TTITLE8=When There's Fire In Your Heart
TTITLE9=Kiss Away
TTITLE10=Lonely Street
TTITLE11=Apartment #9
TTITLE12=Dont Come Home A-Drinkin' (With Lovin' On Your Mind)
TTITLE13=Don't Touch Me
TTITLE14=There Goes My Everything
TTITLE15=Send Me No Roses
TTITLE16=Your Good Girl's Gonna Go Bad
TTITLE17=Walk Through This World With Me
TTITLE18=I'm Not Mine To Give
TTITLE19=I Wound Easy (But I Heal Fast)
TTITLE20=Almost Persuaded
EXTD=
EXTT0=
EXTT1=
EXTT2=
EXTT3=
EXTT4=
EXTT5=
EXTT6=
EXTT7=
EXTT8=
EXTT9=
EXTT10=
EXTT11=
EXTT12=
EXTT13=
EXTT14=
EXTT15=
EXTT16=
EXTT17=
EXTT18=
EXTT19=
EXTT20=
PLAYORDER=
